<svg t="1610583293707" class="icon" viewBox="0 0 1024 1024" version="1.1" xmlns="http://www.w3.org/2000/svg" p-id="3430" width="512" height="512"><path d="M921.6 637.672727l-93.090909-9.309091c0-13.963636 4.654545-23.272727 4.654545-37.236363 0-130.327273-74.472727-246.690909-195.490909-293.236364l37.236364-83.781818c153.6 65.163636 251.345455 214.109091 251.345454 381.672727 0 4.654545 0 23.272727-4.654545 41.890909zM102.4 637.672727c0-18.618182-4.654545-32.581818-4.654545-51.2 0-167.563636 97.745455-316.509091 251.345454-381.672727l37.236364 83.781818c-116.363636 51.2-195.490909 167.563636-195.490909 293.236364 0 13.963636 0 27.927273 4.654545 37.236363l-93.090909 18.618182zM512 1000.727273c-88.436364 0-176.872727-27.927273-246.690909-83.781818l55.854545-74.472728c111.709091 83.781818 274.618182 83.781818 386.327273 0l55.854546 74.472728c-74.472727 55.854545-162.909091 83.781818-251.345455 83.781818z" fill="#ffffff" p-id="3431"></path><path d="M512 409.6C404.945455 409.6 316.509091 325.818182 316.509091 218.763636S404.945455 23.272727 512 23.272727s195.490909 88.436364 195.490909 195.490909-88.436364 190.836364-195.490909 190.836364z m0-293.236364c-55.854545 0-102.4 46.545455-102.4 102.4 0 55.854545 46.545455 102.4 102.4 102.4 55.854545 0 102.4-46.545455 102.4-102.4 0-55.854545-46.545455-102.4-102.4-102.4zM828.509091 963.490909c-32.581818 0-65.163636-9.309091-97.745455-27.927273-93.090909-51.2-125.672727-172.218182-69.818181-265.309091s172.218182-125.672727 265.30909-69.818181c46.545455 27.927273 79.127273 69.818182 88.436364 116.363636s4.654545 102.4-18.618182 148.945455c-27.927273 46.545455-69.818182 79.127273-116.363636 88.436363-13.963636 4.654545-32.581818 9.309091-51.2 9.309091z m0-293.236364c-32.581818 0-69.818182 18.618182-88.436364 51.2-27.927273 46.545455-9.309091 111.709091 37.236364 134.981819 23.272727 13.963636 51.2 18.618182 74.472727 9.309091 27.927273-4.654545 46.545455-23.272727 60.509091-46.545455 13.963636-23.272727 18.618182-51.2 9.309091-74.472727-4.654545-27.927273-23.272727-46.545455-46.545455-60.509091-9.309091-9.309091-27.927273-13.963636-46.545454-13.963637zM195.490909 963.490909c-65.163636 0-130.327273-32.581818-167.563636-97.745454-51.2-93.090909-23.272727-209.454545 69.818182-265.309091 93.090909-51.2 209.454545-23.272727 265.30909 69.818181 51.2 93.090909 23.272727 209.454545-69.818181 265.309091-32.581818 18.618182-65.163636 27.927273-97.745455 27.927273z m-51.2-279.272727c-46.545455 27.927273-65.163636 88.436364-37.236364 134.981818s88.436364 65.163636 134.981819 37.236364c46.545455-27.927273 65.163636-88.436364 37.236363-134.981819-27.927273-51.2-88.436364-65.163636-134.981818-37.236363z" fill="#ffffff" p-id="3432"></path></svg>