<svg t="1607520435676" class="icon" viewBox="0 0 1024 1024" version="1.1" xmlns="http://www.w3.org/2000/svg" p-id="3187" width="512" height="512"><path d="M512 401.066667a110.933333 110.933333 0 1 1-110.933333 110.933333 111.104 111.104 0 0 1 110.933333-110.933333m0-76.8a187.733333 187.733333 0 1 0 187.733333 187.733333 187.733333 187.733333 0 0 0-187.733333-187.733333z" fill="#ffffff" p-id="3188"></path><path d="M537.6 103.424L853.333333 285.525333a51.2 51.2 0 0 1 25.6 44.373334v364.202666a51.2 51.2 0 0 1-25.6 44.373334L537.6 920.576a51.2 51.2 0 0 1-51.2 0L170.666667 738.474667a51.2 51.2 0 0 1-25.6-44.373334V329.898667a51.2 51.2 0 0 1 25.6-44.373334L486.4 103.424a51.2 51.2 0 0 1 51.2 0z m-443.733333 137.728a51.2 51.2 0 0 0-25.6 44.373333v452.949334a51.2 51.2 0 0 0 25.6 44.373333l392.533333 226.474667a51.2 51.2 0 0 0 51.2 0l392.533333-226.474667a51.2 51.2 0 0 0 25.6-44.373333V285.525333a51.2 51.2 0 0 0-25.6-44.373333L537.6 14.848a51.2 51.2 0 0 0-51.2 0z" fill="#ffffff" p-id="3189"></path></svg>